<svg xmlns="http://www.w3.org/2000/svg" viewBox="0 0 250 85" preserveAspectRatio="xMidYMid meet">
  <path d="M2.67 37L2.67 11.23L22.36 11.23L22.36 16.77L10.67 16.77L10.67 21.27L20.65 21.27L20.65 26.47L10.67 26.47L10.67 37L2.67 37M26.96 37L26.96 11.23L34.95 11.23L34.95 37L26.96 37M48.76 37L40.76 37L40.76 11.23L54.04 11.23Q57.73 11.23 59.68 11.86Q61.63 12.50 62.82 14.21Q64.02 15.92 64.02 18.38Q64.02 20.53 63.11 22.08Q62.19 23.64 60.59 24.61Q59.57 25.22 57.80 25.63Q59.22 26.10 59.87 26.58Q60.31 26.89 61.15 27.93Q61.98 28.97 62.26 29.53L66.11 37L57.11 37L52.86 29.13Q52.05 27.60 51.42 27.14Q50.55 26.54 49.46 26.54L48.76 26.54L48.76 37M48.76 16.43L48.76 21.67L52.12 21.67Q52.66 21.67 54.23 21.32Q55.02 21.16 55.52 20.51Q56.02 19.86 56.02 19.02Q56.02 17.77 55.23 17.10Q54.44 16.43 52.26 16.43L48.76 16.43M68.64 37L68.64 11.23L89.98 11.23L89.98 16.73L76.62 16.73L76.62 20.83L89.02 20.83L89.02 26.08L76.62 26.08L76.62 31.16L90.37 31.16L90.37 37L68.64 37M93.27 28.47L100.85 28Q101.09 29.85 101.85 30.81Q103.08 32.38 105.36 32.38Q107.07 32.38 107.99 31.58Q108.91 30.78 108.91 29.72Q108.91 28.72 108.04 27.93Q107.16 27.14 103.96 26.44Q98.72 25.26 96.49 23.31Q94.24 21.36 94.24 18.33Q94.24 16.35 95.39 14.58Q96.54 12.81 98.85 11.80Q101.16 10.79 105.19 10.79Q110.13 10.79 112.72 12.63Q115.31 14.46 115.80 18.47L108.30 18.91Q108 17.17 107.04 16.38Q106.08 15.59 104.40 15.59Q103.01 15.59 102.30 16.18Q101.60 16.77 101.60 17.61Q101.60 18.23 102.18 18.72Q102.74 19.23 104.85 19.67Q110.07 20.79 112.33 21.94Q114.59 23.10 115.62 24.80Q116.65 26.51 116.65 28.62Q116.65 31.09 115.28 33.19Q113.91 35.28 111.45 36.36Q108.98 37.44 105.24 37.44Q98.67 37.44 96.13 34.91Q93.60 32.38 93.27 28.47M137.78 37L136.51 32.75L127.44 32.75L126.19 37L118.05 37L127.74 11.23L136.42 11.23L146.11 37L137.78 37M129.16 27.17L134.84 27.17L131.99 17.91L129.16 27.17M148.69 37L148.69 11.23L168.38 11.23L168.38 16.77L156.69 16.77L156.69 21.27L166.68 21.27L166.68 26.47L156.69 26.47L156.69 37L148.69 37M172.65 37L172.65 11.23L193.99 11.23L193.99 16.73L180.63 16.73L180.63 20.83L193.03 20.83L193.03 26.08L180.63 26.08L180.63 31.16L194.38 31.16L194.38 37" fill="currentColor"/>
  <polygon points="187,76 194,76 230,11 223,11" fill="currentColor"/>
</svg>
